<svg width="99" height="19" viewBox="0 0 99 19" fill="none" xmlns="http://www.w3.org/2000/svg">
<g clip-path="url(#clip0_12584_106150)">
<path d="M24.3736 17.5729L18.5003 0.908363C18.4375 0.720417 18.5631 0.532471 18.783 0.532471H22.866C22.9917 0.532471 23.0859 0.626444 23.1487 0.720417L25.8812 9.45992L26.6664 12.1851C26.6664 12.2165 26.6978 12.2165 26.6978 12.2165C26.7292 12.2165 26.7292 12.2165 26.7292 12.1851C26.8863 11.4647 27.1375 10.5563 27.483 9.45992L30.2784 0.720417C30.3098 0.595119 30.4354 0.532471 30.561 0.532471H34.5813C34.7697 0.532471 34.9268 0.720417 34.864 0.908363L28.9278 17.5729C28.8964 17.6982 28.7708 17.7609 28.6451 17.7609H24.6249C24.4993 17.7609 24.405 17.6982 24.3736 17.5729Z" fill="white"/>
<path d="M44.1917 18.2934C41.3964 18.2934 39.1978 17.4476 37.596 15.7248C35.9942 14.0019 35.209 11.8092 35.209 9.11532C35.209 6.45275 35.9942 4.35402 37.596 2.63117C39.1978 0.877008 41.2394 0.03125 43.752 0.03125C46.4845 0.03125 48.5889 0.970982 50.065 2.85045C51.5098 4.69858 52.2636 7.11056 52.295 10.149C52.295 10.3057 52.1694 10.4309 52.0123 10.4309H40.0458C39.8574 10.4309 39.7318 10.5876 39.7632 10.7755C39.983 11.9972 40.4227 12.9369 41.1137 13.626C41.8675 14.3778 42.8726 14.7537 44.1603 14.7537C45.7935 14.7537 46.8614 14.0959 47.4268 12.7803C47.4582 12.6863 47.5838 12.6237 47.678 12.6237H51.6669C51.8553 12.6237 51.9809 12.8116 51.9495 12.9682C51.5726 14.4405 50.7246 15.6621 49.4683 16.6645C48.0863 17.7609 46.3275 18.2934 44.1917 18.2934ZM43.8462 3.53958C41.7105 3.53958 40.3913 4.66726 39.8888 6.92262C39.8574 7.11056 39.983 7.26718 40.1715 7.26718H47.2069C47.3639 7.26718 47.521 7.11056 47.4896 6.95394C47.3639 5.98288 47.0185 5.19977 46.3903 4.57329C45.7307 3.88415 44.8513 3.53958 43.8462 3.53958Z" fill="white"/>
<path d="M63.917 4.19742C63.917 4.35405 63.7913 4.47934 63.6343 4.47934H58.9859C58.8288 4.47934 58.7032 4.60464 58.7032 4.76126V17.5103C58.7032 17.6669 58.5776 17.7922 58.4205 17.7922H54.5573C54.4003 17.7922 54.2747 17.6669 54.2747 17.5103V6.01424C54.2747 2.97577 56.7559 0.532471 59.7711 0.532471H63.6029C63.7599 0.532471 63.8856 0.657768 63.8856 0.81439L63.917 4.19742Z" fill="white"/>
<path d="M73.1181 18.2934C70.6055 18.2934 68.6582 17.7609 67.2448 16.6646C65.9257 15.6309 65.3603 14.2526 65.1719 12.4984C65.1719 12.3418 65.2975 12.1852 65.4545 12.1852H69.1921C69.3178 12.1852 69.4434 12.2792 69.4748 12.4045C69.8203 14.1586 70.8568 15.0357 73.0239 15.0357C74.0604 15.0357 74.8456 14.8478 75.4109 14.5032C75.9763 14.1273 76.259 13.6574 76.259 13.0623C76.259 12.843 76.2275 12.6237 76.1333 12.4671C76.0391 12.2792 75.9135 12.1225 75.725 11.9659C75.5366 11.8093 75.3481 11.7153 75.2225 11.6213C75.0654 11.5274 74.8142 11.4334 74.4687 11.3394C74.0918 11.2455 73.8405 11.1828 73.6207 11.1515C73.4322 11.1202 73.0867 11.0575 72.6156 10.9635C72.1445 10.8696 71.8304 10.8382 71.642 10.7756C70.6997 10.5876 69.9145 10.3997 69.3178 10.2118C68.721 10.0238 68.0928 9.74189 67.4333 9.36599C66.7737 8.9901 66.2712 8.48891 65.9571 7.86242C65.6116 7.23593 65.4545 6.45282 65.4545 5.54442C65.4545 3.75893 66.1141 2.38065 67.4647 1.44092C68.8152 0.50119 70.4799 0 72.5528 0C74.8142 0 76.573 0.50119 77.8608 1.5349C79.0543 2.50595 79.5882 3.79025 79.8081 5.41912C79.8395 5.57574 79.6824 5.73236 79.5254 5.73236H75.8821C75.7564 5.73236 75.6308 5.63839 75.5994 5.48177C75.3481 3.94687 74.4373 3.19509 72.49 3.19509C71.5477 3.19509 70.8253 3.35171 70.2914 3.69628C69.7575 4.04085 69.4748 4.51071 69.4748 5.10588C69.4748 5.29382 69.5062 5.48177 69.6004 5.66971C69.6946 5.85766 69.8203 5.98296 70.0087 6.10826C70.1972 6.23355 70.3856 6.32753 70.5741 6.4215C70.7625 6.51547 71.0138 6.57812 71.3593 6.67209C71.7048 6.76607 71.9874 6.82872 72.2387 6.86004C72.49 6.92269 72.8355 6.98534 73.2752 7.04799C73.7149 7.14196 74.0604 7.17329 74.3116 7.23593C75.034 7.39256 75.6308 7.54918 76.1019 7.64315C76.573 7.76845 77.107 7.95639 77.7351 8.23831C78.3633 8.52023 78.8344 8.83348 79.1799 9.17805C79.5254 9.52261 79.8395 9.99248 80.0907 10.5876C80.342 11.1828 80.4677 11.8719 80.4677 12.6551C80.4677 14.3779 79.7767 15.7248 78.4261 16.7272C77.107 17.7923 75.3167 18.2934 73.1181 18.2934Z" fill="white"/>
<path d="M90.8968 18.2934C88.1015 18.2934 85.9029 17.4476 84.3011 15.7248C82.6993 14.0019 81.9141 11.8092 81.9141 9.11532C81.9141 6.45275 82.6993 4.35402 84.3011 2.63117C85.9029 0.877008 87.9444 0.03125 90.4571 0.03125C93.1896 0.03125 95.2939 0.970982 96.7701 2.85045C98.2149 4.69858 98.9687 7.11056 99.0001 10.149C99.0001 10.3057 98.8745 10.4309 98.7174 10.4309H86.7509C86.5625 10.4309 86.4368 10.5876 86.4682 10.7755C86.6881 11.9972 87.1278 12.9369 87.8188 13.626C88.5726 14.3778 89.5777 14.7537 90.8654 14.7537C92.4986 14.7537 93.5665 14.0959 94.1318 12.7803C94.1632 12.6863 94.2889 12.6237 94.3831 12.6237H98.3719C98.5604 12.6237 98.686 12.8116 98.6546 12.9682C98.2777 14.4405 97.4297 15.6621 96.1734 16.6645C94.7914 17.7609 93.0326 18.2934 90.8968 18.2934ZM90.5199 3.53958C88.3841 3.53958 87.065 4.66726 86.5625 6.92262C86.5311 7.11056 86.6567 7.26718 86.8451 7.26718H93.8806C94.0376 7.26718 94.1947 7.11056 94.1632 6.95394C94.0376 5.98288 93.6921 5.19977 93.064 4.57329C92.4358 3.88415 91.5564 3.53958 90.5199 3.53958Z" fill="white"/>
<path d="M17.3373 17.4791V14.3467C17.3373 14.2214 17.2745 14.0961 17.2117 14.0021L3.80039 0.595268C3.70616 0.501295 3.58053 0.469971 3.4549 0.469971H0.314082C0.157041 0.469971 0.0314082 0.595268 0.0314082 0.75189V3.66506C0.0314082 3.79036 0.0942246 3.91565 0.157041 4.00963L4.96249 8.80226C5.08812 8.92756 5.08812 9.08418 4.96249 9.20948L0.0942245 14.0648C0.0314081 14.1274 0 14.1901 0 14.2527V17.4478C0 17.6044 0.125633 17.7297 0.282673 17.7297H5.55925C5.71629 17.7297 5.84192 17.6044 5.84192 17.4478V15.5683C5.84192 15.5057 5.87333 15.4117 5.93614 15.3804L8.54302 12.7805C8.66865 12.6552 8.82569 12.6552 8.95133 12.7805L13.7882 17.6044C13.8824 17.6984 14.008 17.7297 14.1337 17.7297H17.0546C17.2117 17.761 17.3373 17.6357 17.3373 17.4791Z" fill="white"/>
<path d="M10.2709 4.60479H12.9092C13.0662 4.60479 13.1918 4.73009 13.1918 4.88671V7.51796C13.1918 7.76855 13.5059 7.89385 13.663 7.7059L17.2749 4.1036C17.3377 4.04095 17.3691 3.9783 17.3691 3.91565V0.75189C17.3691 0.595268 17.2435 0.469971 17.0865 0.469971H13.8828C13.82 0.469971 13.7258 0.501295 13.6944 0.563944L10.0824 4.13492C9.89399 4.29155 10.0196 4.60479 10.2709 4.60479Z" fill="#EE7A30"/>
</g>
<defs>
<clipPath id="clip0_12584_106150">
<rect width="99" height="18.2935" fill="white"/>
</clipPath>
</defs>
</svg>
