<svg width="21" height="21" viewBox="0 0 21 21" fill="none" xmlns="http://www.w3.org/2000/svg">
<rect width="21" height="21" fill="#B9B9B9"/>
<g id="ExploreV1">
<path d="M-1094 -1073C-1094 -1074.1 -1093.1 -1075 -1092 -1075H1484C1485.1 -1075 1486 -1074.1 1486 -1073V612C1486 613.105 1485.1 614 1484 614H-1092C-1093.1 614 -1094 613.105 -1094 612V-1073Z" fill="white"/>
<path d="M-1092 -1074H1484V-1076H-1092V-1074ZM1485 -1073V612H1487V-1073H1485ZM1484 613H-1092V615H1484V613ZM-1093 612V-1073H-1095V612H-1093ZM-1092 613C-1092.55 613 -1093 612.552 -1093 612H-1095C-1095 613.657 -1093.66 615 -1092 615V613ZM1485 612C1485 612.552 1484.55 613 1484 613V615C1485.66 615 1487 613.657 1487 612H1485ZM1484 -1074C1484.55 -1074 1485 -1073.55 1485 -1073H1487C1487 -1074.66 1485.66 -1076 1484 -1076V-1074ZM-1092 -1076C-1093.66 -1076 -1095 -1074.66 -1095 -1073H-1093C-1093 -1073.55 -1092.55 -1074 -1092 -1074V-1076Z" fill="black" fill-opacity="0.1"/>
<g id="explore_web">
<rect width="1440" height="1036" transform="translate(-91 -907)" fill="#181818"/>
<rect id="Rectangle 4193" x="-91" y="-907" width="198" height="1036" fill="#181818"/>
<g id="Group 13850">
<g id="Group 13849">
<g id="Group 13847">
<g id="g1154">
<g id="Play_Parent_192_2_-9-8">
<g id="g90-6-7">
<path id="path82-1-4" d="M9.94764 10.6014L2.17407 18.6839C2.41292 19.5652 3.23805 20.2101 4.19346 20.2101C4.58431 20.2101 4.95345 20.1026 5.25744 19.9306L5.27916 19.9091L14.0081 14.9651L9.94764 10.6014Z" fill="white" fill-opacity="0.6"/>
<path id="path84-1-4" d="M17.8081 9.22575L14.0298 7.07617L9.77393 10.7734L14.0298 14.9651L17.7863 12.837C18.4378 12.4931 18.8937 11.8052 18.8937 11.0314C18.8937 10.2361 18.4595 9.56968 17.8081 9.22575Z" fill="white" fill-opacity="0.6"/>
<path id="path86-4-2" d="M2.17403 3.33582C2.1306 3.50778 2.10889 3.67975 2.10889 3.87321V18.1464C2.10889 18.3614 2.1306 18.5118 2.17403 18.6838L10.2082 10.8163L2.17403 3.33582Z" fill="white" fill-opacity="0.6"/>
<path id="path88-7-4" d="M10.0128 11.0099L14.0299 7.07616L5.30088 2.11063C4.97518 1.91717 4.60604 1.80969 4.21519 1.80969C3.23807 1.80969 2.43465 2.45457 2.1958 3.33589L10.0128 11.0099Z" fill="white" fill-opacity="0.6"/>
</g>
</g>
</g>
<line id="Line 219" x1="1.35355" y1="2.64645" x2="15.3536" y2="16.6464" stroke="#181818"/>
<line id="Line 220" x1="1.64645" y1="19.6464" x2="15.6464" y2="5.64645" stroke="#181818"/>
</g>
</g>
</g>
</g>
</g>
</svg>
