<svg width="19" height="19" viewBox="0 0 19 19" fill="none" xmlns="http://www.w3.org/2000/svg">
<path fill-rule="evenodd" clip-rule="evenodd" d="M2.28976 3.31125C6.70374 -1.83001 14.897 -0.81777 17.9559 5.19275H10.6031C9.27665 5.19275 8.41901 5.16416 7.49276 5.65026C6.4007 6.22215 5.58309 7.28585 5.29149 8.53828L2.28976 3.31125ZM6.33781 9.50477C6.33781 11.249 7.75005 12.6616 9.49392 12.6673C11.2378 12.6673 12.65 11.249 12.65 9.50477C12.65 7.76052 11.2378 6.34796 9.49392 6.34224C7.75005 6.34796 6.33781 7.76052 6.33781 9.50477ZM10.7175 13.6395C8.94503 14.1656 6.86955 13.5823 5.73746 11.6207C4.86839 10.1224 2.58136 6.13064 1.54076 4.31777C-2.10706 9.91081 1.03761 17.5283 7.65857 18.8265L10.7175 13.6395ZM12.427 6.34224C13.9022 7.71477 14.2224 9.9394 13.2275 11.6608C12.4728 12.959 10.0714 17.0194 8.90501 18.9809C15.7261 19.4041 20.7004 12.7131 18.4534 6.33652L12.427 6.34224Z" fill="white" fill-opacity="0.6"/>
</svg>
