<svg width="52" height="52" viewBox="0 0 52 52" fill="none" xmlns="http://www.w3.org/2000/svg">
<rect width="52" height="52" rx="8" fill="black"/>
<g clip-path="url(#clip0_9860_38685)">
<path d="M38.059 37.6678V33.2544C38.059 33.0794 37.9894 32.9125 37.8654 32.7885L19.0869 14.01C18.9629 13.8859 18.796 13.8164 18.621 13.8164H14.2077C13.9898 13.8164 13.8125 13.9937 13.8125 14.2116V18.312C13.8125 18.487 13.882 18.6539 14.006 18.7779L20.7465 25.5184C20.9007 25.6725 20.9007 25.9229 20.7465 26.077L13.9284 32.8952C13.8542 32.9693 13.8125 33.0702 13.8125 33.1745V37.6678C13.8125 37.8855 13.9898 38.063 14.2077 38.063H21.5821C21.8 38.063 21.9773 37.8855 21.9773 37.6678V35.0207C21.9773 34.9164 22.0191 34.8156 22.0933 34.7414L25.7509 31.0837C25.9051 30.9296 26.1554 30.9296 26.3095 31.0837L33.0964 37.8706C33.2204 37.9946 33.3873 38.0642 33.5623 38.0642H37.6626C37.8806 38.0642 38.0578 37.8867 38.0578 37.669L38.059 37.6678Z" fill="white"/>
<path d="M28.2211 19.66H31.9147C32.1337 19.66 32.3122 19.8385 32.3122 20.0575V23.7511C32.3122 24.1058 32.741 24.2831 32.9914 24.0316L38.0583 18.9565C38.1324 18.8823 38.1743 18.7815 38.1743 18.676V14.2314C38.1743 14.0124 37.9968 13.8339 37.7767 13.8339L33.266 13.8281C33.1606 13.8281 33.0597 13.8698 32.9844 13.944L27.9395 18.9808C27.6891 19.2312 27.8664 19.66 28.2199 19.66H28.2211Z" fill="#EE7A30"/>
</g>
<defs>
<clipPath id="clip0_9860_38685">
<rect width="24.375" height="24.375" fill="white" transform="translate(13.8125 13.8125)"/>
</clipPath>
</defs>
</svg>
