<svg width="19" height="23" viewBox="0 0 19 23" fill="none" xmlns="http://www.w3.org/2000/svg">
<path d="M15.1302 12.042C15.1412 11.1741 15.3679 10.3231 15.7892 9.56822C16.2105 8.81333 16.8127 8.17908 17.5398 7.72448C17.0779 7.05361 16.4685 6.50151 15.7601 6.11203C15.0517 5.72255 14.2638 5.50642 13.4588 5.48081C11.7418 5.29751 10.0772 6.52569 9.20226 6.52569C8.31037 6.52569 6.96323 5.49901 5.51258 5.52936C4.57426 5.56019 3.65979 5.83768 2.85828 6.33479C2.05677 6.8319 1.39554 7.53168 0.939029 8.36595C-1.03843 11.8478 0.436579 16.965 2.33086 19.7795C3.27861 21.1577 4.38625 22.6971 5.8356 22.6426C7.25387 22.5827 7.78356 21.7228 9.49552 21.7228C11.1916 21.7228 11.6886 22.6426 13.1673 22.6078C14.6892 22.5827 15.648 21.2235 16.5625 19.8323C17.2435 18.8503 17.7675 17.765 18.1151 16.6166C17.231 16.2362 16.4764 15.5997 15.9456 14.7862C15.4148 13.9727 15.1312 13.0183 15.1302 12.042Z" fill="white" fill-opacity="0.6"/>
<path d="M12.3372 3.62975C13.167 2.61672 13.5758 1.31462 13.4768 0C12.209 0.13541 11.038 0.751585 10.197 1.72575C9.78584 2.20166 9.47091 2.75532 9.27025 3.35508C9.06959 3.95484 8.98713 4.58893 9.02759 5.22112C9.66167 5.22776 10.289 5.08799 10.8623 4.81234C11.4355 4.53668 11.9398 4.13234 12.3372 3.62975Z" fill="white" fill-opacity="0.6"/>
</svg>
