<svg
  width="28"
  height="28"
  viewBox="0 0 28 28"
  fill="none"
  xmlns="http://www.w3.org/2000/svg"
>
  <circle cx="14" cy="14" r="14" fill="#F7931A" />
  <path
    d="M20.1726 12.0054C20.4513 10.1425 19.0329 9.14111 17.0935 8.47305L17.7226 5.94955L16.1865 5.56674L15.574 8.02374C15.1702 7.92311 14.7555 7.82818 14.3433 7.73411L14.9602 5.26093L13.425 4.87811L12.7955 7.40074C12.4612 7.32461 12.1331 7.24936 11.8146 7.17018L11.8163 7.1623L9.69796 6.63336L9.28934 8.27399C9.28934 8.27399 10.429 8.53518 10.405 8.55136C11.0271 8.70668 11.1395 9.11836 11.1207 9.44474L10.4041 12.3196C10.447 12.3305 10.5025 12.3462 10.5638 12.3707C10.5126 12.358 10.4579 12.344 10.4015 12.3305L9.39696 16.3577C9.32084 16.5467 9.1279 16.8302 8.69303 16.7226C8.70834 16.7449 7.57653 16.4439 7.57653 16.4439L6.81396 18.2022L8.8129 18.7005C9.18478 18.7937 9.54922 18.8912 9.90797 18.9831L9.27228 21.5355L10.8066 21.9183L11.4362 19.3931C11.8553 19.5068 12.2622 19.6118 12.6603 19.7107L12.0329 22.2241L13.569 22.6069L14.2047 20.0594C16.824 20.555 18.7936 20.3551 19.6227 17.986C20.2907 16.0785 19.5894 14.9782 18.2113 14.2607C19.2149 14.0293 19.9709 13.3691 20.1726 12.0054ZM16.663 16.9269C16.1883 18.8344 12.9766 17.8032 11.9353 17.5446L12.7788 14.1632C13.8201 14.423 17.1591 14.9375 16.663 16.9269ZM17.1381 11.9779C16.705 13.713 14.0318 12.8314 13.1647 12.6153L13.9295 9.54842C14.7966 9.76455 17.5892 10.1679 17.1381 11.9779Z"
    fill="white"
  />
</svg>